<svg xmlns="http://www.w3.org/2000/svg" width="70" height="70" fill="none"><path fill="#80DEEA" d="M35 49.583C16.187 49.583 1.458 43.167 1.458 35S16.188 20.416 35 20.416c18.813 0 33.542 6.417 33.542 14.584 0 8.166-14.73 14.583-33.542 14.583Zm0-26.25c-18.375 0-30.625 5.98-30.625 11.667 0 5.687 12.25 11.666 30.625 11.666S65.625 40.688 65.625 35c0-5.688-12.25-11.667-30.625-11.667Z"/><path fill="#80DEEA" d="M22.02 65.041c-1.457 0-2.624-.291-3.79-1.02-7.147-4.084-5.25-19.98 4.082-36.313 4.375-7.583 9.771-14 15.021-18.083 5.688-4.375 10.792-5.688 14.292-3.646 3.646 2.042 4.958 7.146 4.083 14.292-.875 6.708-3.791 14.583-8.166 22.166-4.375 7.584-9.771 14-15.021 18.084-3.792 2.916-7.438 4.52-10.5 4.52ZM47.98 7.876c-2.334 0-5.397 1.312-8.75 3.937-4.96 3.938-10.063 10.063-14.292 17.355-9.188 15.895-10.063 29.604-5.25 32.374 2.479 1.459 6.562.146 11.083-3.354 4.958-3.937 10.062-10.062 14.291-17.354 4.23-7.291 7-14.729 7.876-21 .729-5.833-.146-9.916-2.626-11.375-.729-.291-1.458-.583-2.333-.583Z"/><path fill="#80DEEA" d="M48.125 65.041c-7.292 0-17.792-8.895-25.667-22.75C12.98 25.959 11.083 10.063 18.23 5.98c7.146-4.083 19.98 5.396 29.459 21.73 4.374 7.582 7.291 15.457 8.166 22.166 1.021 7.146-.437 12.104-4.083 14.291-1.167.584-2.334.876-3.646.876ZM19.687 8.459c-4.812 2.771-3.937 16.48 5.25 32.375C34.126 56.73 45.5 64.313 50.313 61.542c2.48-1.459 3.355-5.542 2.626-11.376-.876-6.27-3.646-13.708-7.876-21C35.876 13.271 24.5 5.688 19.689 8.459Z"/><path fill="#80DEEA" d="M35 40.833a5.833 5.833 0 1 0 0-11.667 5.833 5.833 0 0 0 0 11.667Z"/></svg>