<svg xmlns="http://www.w3.org/2000/svg" width="70" height="70" fill="none"><path fill="#E64A19" d="M37.917 24.792H26.25c-5.638 0-10.208-4.57-10.208-10.209 0-5.638 4.57-10.208 10.208-10.208h11.667v20.417Z"/><path fill="#7C4DFF" d="M36.458 45.208H26.25c-5.638 0-10.208-4.57-10.208-10.208S20.612 24.79 26.25 24.79h10.208v20.417Z"/><path fill="#66BB6A" d="M26.25 65.625c-5.638 0-10.208-4.57-10.208-10.208s4.57-10.209 10.208-10.209h10.208v10.209c0 5.638-4.57 10.208-10.208 10.208Z"/><path fill="#FF7043" d="M46.667 24.792H36.458V4.375h10.209c5.638 0 10.208 4.57 10.208 10.208s-4.57 10.209-10.208 10.209Z"/><path fill="#29B6F6" d="M46.667 45.208c5.638 0 10.208-4.57 10.208-10.208S52.305 24.79 46.667 24.79 36.458 29.361 36.458 35c0 5.638 4.57 10.208 10.209 10.208Z"/></svg>