<svg xmlns="http://www.w3.org/2000/svg" width="70" height="70" fill="none"><path fill="#F4511E" d="M61.75 32.438 37.98 8.666c-.73-.73-1.75-1.167-2.772-1.167-1.02 0-2.041.438-2.77 1.167l-5.105 5.104 5.98 5.979a4.036 4.036 0 0 1 1.895-.438c2.48 0 4.375 1.896 4.375 4.375 0 .73-.145 1.313-.437 1.896l5.833 5.834a4.036 4.036 0 0 1 1.896-.438c2.48 0 4.375 1.896 4.375 4.375 0 2.48-1.896 4.375-4.375 4.375-2.48 0-4.375-1.896-4.375-4.375 0-.729.146-1.312.438-1.896l-5.834-5.833c-.146 0-.291.146-.437.146v15.166c1.75.584 2.916 2.188 2.916 4.084 0 2.479-1.895 4.375-4.375 4.375-2.479 0-4.375-1.896-4.375-4.375 0-1.896 1.167-3.5 2.917-4.084V27.626c-1.75-.583-2.917-2.188-2.917-4.083 0-.73.146-1.313.438-1.896l-5.98-5.98L8.668 32.439c-.73.729-1.167 1.75-1.167 2.77 0 1.021.438 2.042 1.167 2.771l23.77 23.771c.73.73 1.75 1.167 2.771 1.167s2.042-.438 2.771-1.167L61.75 37.98c.73-.73 1.167-1.75 1.167-2.772 0-1.02-.438-2.041-1.167-2.77Z"/></svg>