<svg xmlns="http://www.w3.org/2000/svg" width="70" height="70" fill="none"><path fill="#FFD600" d="M8.75 61.25V8.75h52.5v52.5H8.75Z"/><path fill="#000001" d="M43.076 48.048c1.01 1.639 2.106 3.21 4.43 3.21 1.95 0 2.974-.97 2.974-2.312 0-1.605-1.059-2.176-3.205-3.11l-1.177-.502c-3.397-1.44-5.655-3.246-5.655-7.06 0-3.514 2.69-6.189 6.895-6.189 2.993 0 5.145 1.037 6.696 3.752l-3.666 2.344c-.807-1.441-1.679-2.008-3.03-2.008-1.38 0-2.254.87-2.254 2.008 0 1.406.875 1.974 2.895 2.845l1.177.502c4.003 1.705 6.26 3.446 6.26 7.36 0 4.217-3.33 6.529-7.801 6.529-4.374 0-6.858-2.195-8.24-4.912l3.701-2.457Zm-16.896.12c.738 1.32 1.86 2.337 3.472 2.337 1.543 0 2.431-.61 2.431-2.98V32.085h4.86v16.188c0 4.91-2.847 7.145-7.006 7.145-3.759 0-6.471-2.546-7.576-4.912l3.819-2.338Z"/></svg>