<svg xmlns="http://www.w3.org/2000/svg" width="18" height="18" fill="none"><path fill="#000" d="M9 13.022c-.15 0-.29-.024-.422-.071a.98.98 0 0 1-.365-.239l-4.05-4.05a1.067 1.067 0 0 1-.31-.787c0-.319.103-.581.31-.787.206-.207.473-.315.8-.325.329-.008.596.09.803.296l2.109 2.11V1.125c0-.319.108-.586.324-.802C8.414.108 8.681 0 9 0c.319 0 .586.108.802.323.215.216.323.483.323.802v8.044l2.11-2.11c.206-.206.473-.304.802-.296.327.01.594.118.8.325.207.206.31.468.31.787s-.103.581-.31.787l-4.05 4.05a.98.98 0 0 1-.365.239c-.131.047-.272.07-.422.07ZM2.25 18c-.619 0-1.148-.22-1.589-.66A2.168 2.168 0 0 1 0 15.75V13.5c0-.319.108-.586.323-.802.216-.215.483-.323.802-.323.319 0 .586.108.802.323.215.216.323.483.323.802v2.25h13.5V13.5c0-.319.108-.586.324-.802.215-.215.482-.323.801-.323.319 0 .586.108.801.323.216.216.324.483.324.802v2.25a2.17 2.17 0 0 1-.66 1.59c-.441.44-.971.66-1.59.66H2.25Z"/></svg>