<svg xmlns="http://www.w3.org/2000/svg" width="70" height="70" fill="none"><path fill="#E65100" d="M59.792 7.292H10.208l4.375 49.583L35 62.708l20.417-5.833L59.792 7.29Z"/><path fill="#FF6D00" d="M35 11.666v46.521l16.333-4.666 3.646-41.855H35Z"/><path fill="#fff" d="M35 36.459v-5.834h12.542L46.52 47.396 35 51.188v-6.125l5.98-2.042.437-6.563H35Zm12.98-11.667.437-5.834H35v5.834h12.98Z"/><path fill="#EEE" d="M35 45.063v6.125l-11.52-3.792-.584-8.02h5.833l.292 3.645L35 45.063Zm-7.146-20.271H35v-5.834H21.73l1.02 17.5H35v-5.833h-6.708l-.438-5.833Z"/></svg>